<svg id="Layer_1" data-name="Layer 1" xmlns="http://www.w3.org/2000/svg" viewBox="0 0 1164.48 1164.41"><defs><style>.cls-1{fill:#b01832;fill-rule:evenodd;}</style></defs><path class="cls-1" d="M145.15,595.1c0,11.89,0,25.21,1.1,36.38.73,6.12.73,12.24,1.82,18.72.73,5,1.1,11.89,2.56,18.37.36,2.52,0,3.6.73,6.12L164.5,732a2.12,2.12,0,0,1,.37,1.44l4.74,13.32v.36l.73,2.16c.37.36.37.36.37.73l.73,2.15v.37l3.28,9c.37.72.73,2.16,1.1,2.88l13.87,31.69c4.38,9.37,9.12,18.73,14.23,27.37l15.7,26.29c2.19,2.89,3.65,5.41,5.84,8.29l8.39,11.88a45,45,0,0,0,3.29,4.32,60.44,60.44,0,0,1,5.84,7.57c5.84,7.92,13.14,14.76,19.35,22.68,4,5.41,9.12,9.37,13.87,14.41l1.46,1.8,1.82,1.8C285.32,927.87,290.8,934,297,939l47.09,36.73a69.25,69.25,0,0,0,8.4,5.77l29.93,18c1.83,1.08,2.92,1.44,4.74,2.53,3.65,1.8,6.21,2.88,9.5,4.68l14.23,6.84c1.46.72,3.29,1.44,4.75,2.16a15.15,15.15,0,0,0,2.19.72L460.54,1033a32.38,32.38,0,0,0,5.47,1.8l1.46.35h.36a.36.36,0,0,0,.37.37l8.76,2.52h.37l18.61,4.68c1.46.36,1.83.36,3.29.72l6.57,1.8c4,.72,6.94.72,10.58,1.8l17.53,3.24a159.06,159.06,0,0,1,18.25,2.52l33.58,1.8c24.09,0,38,0,61.69-1.8,1.82-.36,4-.72,5.47-1.08l12.78-1.44c3.29,0,3.29-.72,5.84-1.08a5.49,5.49,0,0,0,2.56-.36l8.76-1.44a41.47,41.47,0,0,1,6.57-1.08c2.19-.72-.37-.36,2.19-.72a283,283,0,0,0,40.88-10.45l14.23-4.67h.74c9.12-3.25,19-6.49,27.74-10.45l4.74-2.16c1.83-.72,2.92-1.44,4.75-2.16,3.65-1.8,6.2-2.88,9.85-4.32a29.82,29.82,0,0,0,4.75-2.16l27-14.77c1.1-.72,1.46-.72,2.55-1.44L831,992c.72-.72,1.46-.72,2.19-1.08a7.51,7.51,0,0,1,2.19-1.44c8-5.4,16.79-10.08,24.09-15.85,4.38-3.6,9.12-6.12,13.5-9.36l8-6.48c6.21-5,17.16-13.33,22.64-19.09L918.28,925a156.36,156.36,0,0,0,16.79-17.64c1.46-1.44,2.19-2.17,3.65-3.6l9.85-11.17c11.32-14.41,22.63-28.45,32.85-44.3,1.83-2.88,3.29-5.4,5.48-8.64a7.84,7.84,0,0,0,1.1-1.8L1004.42,809c1.1-2.16,1.46-3.24,2.56-5,1.46-3.61,2.92-6.13,4.38-9.73l19-45.74a8.17,8.17,0,0,1,.36-1.44v-.36l6.21-19.08a2.16,2.16,0,0,0,.36-1.44l5.84-22.69c.37-2.17.37-1.08.74-2.88a6.15,6.15,0,0,0,.36-2.52l2.19-8.29c.36-1.08,0-1.8.36-2.88l1.1-6.48c.36-3.6,2.19-7.93,2.56-11.53,0-1.08-.37-2.52,0-3.6,0-2.88.73-2.88,1.09-5.76.37-3.24,0-3.6.73-6.84,1.83-7.57,1.1-17.65,2.19-25.21l.73-27.37c0-10.81-.73-44.3-3.28-53.67-.37-2.52,0-3.23-.37-6.12L1038,475.54l-18.25-52.22a5.91,5.91,0,0,1-1.09-2.17c-.37-1.07-.73-1.44-1.1-2.52l-3.28-7.2c-4.38-10.8-10.22-20.53-15.33-30.61l-27.38-43.58-.37-.36-9.85-13.32c-6.57-7.93-13.87-18.37-21.17-25.93L922.66,278.9c-2.56-2.52-4.38-4.32-7.31-6.84-2.55-2.16-4.74-4.69-7.29-6.85l-2.56-2.52-.73-.72-31-25.57c-9.12-7.56-19.71-13.68-29.56-20.53l-7.31-4.68c-.36,0-.36,0-.36-.36l-7.67-4.32-2.19-1.08-13.5-7.56c-8-4-16.06-8.64-24.46-11.89L777,180.58c-.36-.36-1.09-.36-1.46-.72l-16.79-6.48L758,173l-1.46-.36L746,169.06c-.36-.36-.72-.36-1.46-.72l-2.55-.72-1.46-.72-3.65-1.09c-.37,0-1.1-.35-1.46-.35a161.59,161.59,0,0,0-24.82-7.21,10.27,10.27,0,0,1-3.29-.36c-1.82-.36-1.09-.36-2.92-.72a23.06,23.06,0,0,1-2.55-.72l-29.93-5.76a5.37,5.37,0,0,0-2.56-.72c-2.56-.72-4.38,0-6.57-.72-2.56-.36-2.19-.72-6.21-1.08a14.41,14.41,0,0,1-5.84-.72l-33.58-2.16c-11.68,0-29.57-1.44-41.61,0a81,81,0,0,1-13.14,1.08c-7.67.36-13.51,1.8-19,1.8-3.65.36-3.65,1.08-6.2,1.44s-4-.36-6.57.36c-1.83.36-1.09.36-2.92.72L460.9,166.9h-1.1l-1.82.72h-.37l-5.84,2.16c-17.88,6.48-29.56,11.52-46,18.72-3.65,1.44-6.57,3.24-9.49,4.68-10.22,5-19.71,10.81-29.57,16.21-11.31,6.12-21.53,14.05-32.12,21.25L282,274.94l-.73.36c-5.11,4.68-9.86,10.44-14.6,15.49-2.56,2.52-4.38,4.68-6.94,7.2-2.19,2.88-4.38,4.68-6.57,7.56l-45.26,64.11a21.15,21.15,0,0,0-1.46,2.16c-9.13,15.48-16.43,31.69-24.09,47.53a5.08,5.08,0,0,0-.73,2.17l-19,53.66-6.93,27c-.73,4-2.19,7.56-2.56,11.52l-1.45,9.37c-.37,3.6-1.83,7.92-2.2,11.52s.37,4.32-.73,6.84L147,554.05c-1.1,9.36-1.83,31.69-1.83,41.05M17.76,598l3.29,62.3,4.38,31.33a10,10,0,0,1,.36,3.6c.37,2.89.37,1.8.73,4.32L36,743.12a483.23,483.23,0,0,0,29.2,86.44l.37,1.44,2.19,5c4.74,11.16,10.22,21.61,15.7,32.41l29.93,50.78a8.87,8.87,0,0,0,1.46,2.52c1.46,2.16,2.55,3.6,4,5.4l14.24,20.53c5.11,7.21,10.59,13.33,15.69,20.17,5.48,6.48,10.59,13.33,16.43,19.45l48.55,48.62c1.09.72,1.46,1.08,2.55,1.8.37.36,0,.36.73.72,5.11,4.32,10.59,9.36,16.06,13.68a61.46,61.46,0,0,1,5.11,4,314,314,0,0,0,25.56,19.08,61.08,61.08,0,0,0,5.11,3.6l5.11,3.61c1.82,1.08,3.28,2.16,5.47,3.6l21.9,13.68a11.11,11.11,0,0,0,2.56,1.8,16.08,16.08,0,0,1,2.55,1.44l5.85,3.61c2.19,1.08,4,1.8,5.84,2.88l72.27,34.21,39.79,13.69,42.34,11.16a59.09,59.09,0,0,1,7.67,1.8c5.47.72,9.49,1.8,15,2.52,9.86,1.8,20.81,4.32,30.67,5l16.06,1.8c27,3.24,55.85,2.52,83.22,2.52a110.38,110.38,0,0,0,16.06-1.07l47.46-5c4.38-1.08,9.85-1.44,14.6-2.52l11-2.16c13.14-2.52,25.55-6.12,38.69-9,11-2.52,35-10.45,46.36-14.77,15.7-5.76,30.66-11.52,45.63-19.09,12.77-6.12,25.18-11.88,37.59-18.72,18.25-10.45,36.51-21.61,53.3-33.86l53.29-42.49,55.85-57.63c5.11-6.48,11-12.24,15.7-19.08a43.18,43.18,0,0,1,3.65-5.05c1.46-1.8,2.19-2.88,3.65-4.68a58.84,58.84,0,0,1,3.65-5c7.3-9,24.82-36.74,31-47.54,1.1-2.16,2.19-3.6,3.29-5.4a46.85,46.85,0,0,1,3.28-5.76l24.46-49.7,12.41-30.62c5.11-14,12.78-35.29,16.06-49.33l1.83-7.21c3.65-11.52,5.47-23.41,7.66-35.29l4.39-22.33c1.09-5.76,2.92-24.49,3.64-31.33l2.19-32.77c0-18,1.46-48.62-1.09-65.55l-1.82-24.49c-.37-6.48-2.92-19.81-3.66-27.37-.73-6.12-2.55-12.25-3.65-18l-1.46-7.92c-1.46-9.36-4.38-19.81-6.57-28.81-.36-1.8-.73-2.16-1.09-3.61s-.37-1.79-.73-3.23a22.24,22.24,0,0,1-1.1-3.61c-9.49-33.13-16.79-50.42-29.93-81.39-8-19.45-19.34-40-30.3-58.34L1053.34,235l-20.45-24.13c-7.3-8.64-29.2-31-37.23-37.45l-2.55-2.52-2.19-2.16-23.73-20.17c-9.13-7.56-18.62-14.41-27.74-21.61L862.06,80.1l-5.84-2.88L828.84,64.61c-11.31-4.68-23.36-9-35-13.32-13.5-5-27.37-9-40.88-13-1.83-.36-1.09-.36-3.29-.71L713.5,29.32c-1.83-.36-1.83-.72-3.65-.72-9.13-1.44-30.67-5.76-38.7-6.48l-16.42-1.44a253.12,253.12,0,0,0-33.22-2.16c-3.65,0-4.38-.72-8-.72l-91.62,5.76c-4,0-5.11.72-8,1.08-4,.36-5.11.72-8,1.08l-11.68,2.16c-8,2.16-18.26,3.6-26.65,5.4l-21.54,5.4-3.28,1.09-17.52,5c-4.75,1.8-9.13,2.88-13.87,4.68l-9.49,3.6c-1.46.36-2.19.72-3.65,1.08l-19.35,7.92C366,67.5,353.58,72.54,341.54,78.66c-2.19,1.08-4.38,2.16-6.21,3.24-2.19,1.08-4,2.16-5.47,2.88a21.5,21.5,0,0,0-2.92,1.44l-26.29,15.13c-20.8,12.25-46.72,29.53-64.24,44.66l-29.57,25.21c-9.85,10.08-21.17,19.08-30.29,30.25-.37.36-.37.72-1.1,1.08l-10.58,11.52a437.48,437.48,0,0,0-30.67,37.82c-1.46,1.44-2.55,3.6-4,5l-5.48,7.92c-1.09,1.44-1.46,1.8-2.19,2.88-6.2,8.29-17.88,25.94-23,35.66-3.64,6.84-8,13.33-11.67,20.17l-12,24.13C73.61,352,72.15,356,70,360.29L67,366.41c-.37,1.08-.73,1.8-1.1,2.89L40.76,439.52A342,342,0,0,0,29.44,486.7c-1.46,8.28-4.38,19.09-4.74,27-.37,3.6-1.1,4.33-1.46,8.28l-5.48,67Zm16.79,16.2c0-15.48-.73-44.66,1.46-59.78a27.9,27.9,0,0,0,.73-7.93L38.57,531a58.19,58.19,0,0,1,1.09-7.92c.73-6.85,2.56-14.41,3.29-22,.36-2.88,1.09-4.32,1.46-7.57,1.82-9.36,3.65-19.08,6.2-28.09.37-1.44.37-2.16.73-3.6l4.75-16.92c3.28-12.25,7.3-24.13,11.31-36l27.38-63c1.1-2.16,1.82-3.61,2.92-5.77,8-14.76,15.7-29.89,25.19-43.57L140,270.62a26.43,26.43,0,0,0,3.66-5c3.64-4.69,7.29-10.09,11.31-14.77l25.55-30.25c10.95-13,24.09-24.13,36.14-36.38a46.83,46.83,0,0,1,4.38-4,50.34,50.34,0,0,1,4.75-4.32c6.57-4.68,12.4-10.44,18.61-15.85l82.5-55.46,40.15-19.81,5.84-2.88,12.05-5c2.18-1.08,4-1.44,6.2-2.52l9.13-3.6c1.09-.36,2.55-.72,3.28-1.08,2.19-.72,3.65-1.44,6.21-2.52L416.37,65c2.19-.73,4-1.45,6.2-2.17,14.6-4.68,29.2-8.28,43.81-12.6l39.05-7.92c4.75-1.08,10.22-1.08,15-2.16l23-3.25a54.87,54.87,0,0,0,8-.36l65-2.16c9.13,0,15.7,1.44,24.82,1.44l35.41,3.61c11.68,1.07,44.53,7.92,55.48,10.44l51.11,14.76c1.46.73,3.65,1.08,5.11,1.8l60.23,25.22,29.93,15.84c.73.36,1.09.72,1.82,1.08l19,11.17C906.6,124,920.47,133,927,138.08c7.66,6.49,17.15,12.61,25.91,19.81l14.61,11.89c12.41,10.08,39.05,35.29,47.08,45l9.49,10.44c6.94,6.84,25.19,30.25,32.13,39.61,1.82,2.88,3.64,5,5.47,7.93,3.65,5.4,7.3,10.08,11,15.84,5.84,9,12,18.37,17.16,28.1,8,14.4,16.06,28.44,22.63,43.21l21.17,51.14c.73,1.8,1.1,3.24,1.83,4.68,2.92,7.93,5.11,16.93,8,25.21,3.28,10.45,5.47,20.89,8,31.34,1.09,4.32,6.93,31.69,7.66,38.53.37,3.24.37,2.88.73,5.76l1.83,11.53c0,5,1.09,6.84,1.09,12.24l2.19,23.41c.73,5.4.37,24.85,1.1,31.69.73,9.73-.37,9.37,0,19.45,0,7.56-.73,17.65-1.46,25.21,0,3.6-.37,7.92-.73,11.88a32,32,0,0,1-.73,5.41c-.37,2.52,0,4-.37,6.48a20.76,20.76,0,0,1-1.09,5c-.37,2.52,0,4-.37,6.48L1149,738.8c-.36,1.08-.36,1.8-.73,2.88a558.69,558.69,0,0,1-17.15,54.74l-1.83,5c-5.48,15.85-12.41,31-19.71,46.1l-4.38,8.65c-5.11,9.72-10.22,20.17-16.06,29.89a9.32,9.32,0,0,0-2.56,4c-9.49,17.29-25.91,40-37.59,55.1l-17.16,21.25c-2.19,2.88-4.38,4.68-6.21,7.56l-6.2,6.85C1008.07,992,997.49,1005,985.44,1015l-5.47,5c-1.46,1.44-2.19,1.44-3.66,2.88-1.45,1.8-1.82,1.8-3.65,3.24l-43.8,34.94c-5.47,3.6-10.58,7.2-15.69,10.8-2.56,1.8-5.11,3.24-7.67,5-13.51,9-27.74,16.57-42,24.13a14.26,14.26,0,0,1-4,2.16l-50,23c-3.65,1.44-5.84,2.16-9.49,3.6-9.49,3.6-19.35,7.57-29.2,10.09l-63.15,15.84c-3.29.72-7.3,1.8-10.59,2.17-2.92.35-3.28.72-5.84,1.08l-40.88,5c-4.75.36-8,.36-12.78,1.08-4,.36-8,0-12.41.36l-37.6.36c-12.77,0-25.18-1.44-37.59-1.8-4.38,0-7.31-1.08-12.05-1.08l-11.68-1.44a18,18,0,0,0-5.11-1.08c-13.87-1.08-37.6-6.13-50.37-9.37l-16.07-3.6c-1.09-.36-3.28-1.08-5.11-1.8l-51.46-16.56c-15-6.13-29.57-11.89-43.81-19.09-2.92-1.45-5.47-2.88-8.76-4.33l-19.34-10.08a11.53,11.53,0,0,0-2.19-1.44L295.18,1077c-8-5-16.06-10.08-23.73-15.84a26,26,0,0,0-3.28-2.52l-33.59-26.29c-2.55-2.17-4.38-4-6.93-6.13l-52.56-52.58L157.2,952.36c-10.22-11.88-18.62-25.21-27.74-38.17-1.83-2.52-3.65-5.4-5.11-7.92-1.83-2.52-3.65-5-5.48-7.93-1.82-3.24-2.92-5.4-4.74-8.28-6.57-11.16-13.14-22.33-19-33.85-.72-1.8-1.09-2.52-1.82-4.32a26.69,26.69,0,0,1-2.19-4.69l-14.6-31.69c-4-11.16-8.76-22-12.41-33.49q-1.65-5.4-3.29-9.73l-9.85-36a20.72,20.72,0,0,1-.73-2.52c-.37-1.08-.37-1.8-.73-2.88-3.29-14.77-5.48-29.17-8.76-43.94-.37-1.8,0-3.6-.37-5.4a279.86,279.86,0,0,1-3.65-29.89c0-4.33-1.09-7.21-1.09-12.25C35.65,630.4,34.55,623.19,34.55,614.19Zm772.39,43.22c6.57,3.24,11,6.12,19.71,8.28,24.46,6.48,43.81-1.8,61.69-15.49,17.89-13.32,35.41-38.17,48.19-59.78,14.23-24.13,23.72-47.9,30.3-78.87,3.28-15.48,4-33.49,2.91-50.06-1.09-14.76-7.66-29.89-14.6-39.61-10.58-14.41-24.09-22.33-43.07-25.21-3.28-.36-2.92.72-5.47,7.2-2.56,6.84-5.12,13-7.67,19.45L837.61,579.26c-5.11,13-10.22,25.93-15.33,38.53C819.72,623.92,807.31,653.81,806.94,657.41Zm274.87-85c0,5.76,4.74,18.36,6.93,24.48.37,1.44.73,2.89,1.46,5.05a70.89,70.89,0,0,1-.36,36c-3.65,12.61-13.51,27.37-15.33,34.94-3.29,13-2.92,18,2.19,29.89,1.46,3.24,3.65,7.2,4.38,10.44-1.46,2.16-2.19,1.44-2.56,4.32h43.08c2.55,0,.36,1.08,3.64-.72a29.5,29.5,0,0,0-2.91-4.32c5.84-11.52,11-23.41,7.66-36.38l-1.09-4c-5.48-19.44-17.52-22-17.52-56.9,0-13.32,10.95-34.93,10.95-44.29-6.21-1.45-30.67-.37-38.7-.37C1082.17,570.61,1081.81,571,1081.81,572.42Zm-998,0c0,9.72,10.22,28.81,10.22,42.49,0,11.89.37,7.21-1.09,18.37-1.1,9-7.67,19.81-12,28.09-9.86,19.81-7.67,29.89.73,48.26,4.38,9.36-16.06,7.92,23.73,7.92,6.2,0,17.15.72,21.53,0-.36-2.52-1.46-3.24-2.55-5,7.66-14.77,11.68-27.73,4.74-44.66a62,62,0,0,0-3.28-7.2c-3.29-6.84-8.76-15.85-10.22-22.33-4-14.76-2.56-31.33,2.55-45a112.13,112.13,0,0,0,3.65-11.88c1.46-4.32,4-10.81,0-10.81H85.65C84.19,570.61,83.83,571,83.83,572.42ZM719.34,78.3c0,8.28-6.21,24.85-8,33.85-.73,2.16-1.46,4.68-2.19,7.2s-1.1,4.69-1.83,7.57c-1.09,2.88-1.46,5-4,6.12-3.65,1.44-5.48-.36-5.48,4.32,1.83.36,1.83.72,3.29,1.08a15.14,15.14,0,0,1,4,.36l6.94,1.44c4.38,1.09,17.88,6.85,15,1.09-.73-1.09-1.09-.72-2.92-1.81-7.3-4.32-3.65-12.24-1.82-19.08l2.55-10.09c14.61,0,11.68,8.29,16.79,25.93,2.56,9.37,6.21,16.21,16.07,15.49,3.65-.36,6.93-.36,7.66-3.6-1.82-2.52-4.74-.36-8-4.68-2.19-2.88-3.28-10.09-4.74-14.41l-3.65-16.57c1.82,0,4.74-1.08,6.2-1.44a40.37,40.37,0,0,0,4.74-3.6c9.13-9.36,4.75-23-6.56-29.17-7.31-4-24.1-5.4-37.6-10.08h-.37l-4-1.08c-1.1,4.32-.37,3.24,3.28,5.4C716.05,73.26,719.34,76.5,719.34,78.3Zm23.36,29.89c-3.28,0-2.19,0-4.75-.72-2.19-.36-8-1.08-9.49-2.52-2.19-1.8-1.09-4.32-.36-7.92,1.82-5.4,3.65-18.73,7.66-18.73a14.52,14.52,0,0,1,6.58,1.44l2.18,1.08c4,2.52,5.85,5.76,6.94,10.81C753.65,99.55,748.91,108.19,742.7,108.19Zm-66.44,958.34c1.83,7.2,9.86-4.32,14.61,11.16,1.45,5,2.55,10.09,4,15.13l3.65,15.13c.73,3.6,3.65,12.24,3.65,16.2,0,6.12-4,4.32-5.11,7.93,2.19,3.24,3.29,1.8,10.22-1.09,4.75-1.79,11.68-2.88,16.43-4,2.92-.72,2.19-.36,3.65-2.16-3.65-5.76-8.76,3.6-13.51-9-1.09-3.24-4.38-14.77-4.38-18s9.49-4,12-1.8c2.92,2.16,5.47,6.12,8.39,9l3.29,3.59c2.92,3.61,10.58,11.17,15.7,11.17,5.47,0,7.3-.36,12.41-5,1.09-1.08,3.28-3.24,1.46-4.32-1.46-.72-2.93.72-6.57.72-4,0-16.07-12.61-19.35-16.57l-.37-.36a.35.35,0,0,0-.36-.36,1.25,1.25,0,0,0-.37-.72c-2.55-2.88-3.65-2.88-4-5.4,1.82-3.24,11.31-10.81,5.11-22a30.08,30.08,0,0,0-4-5.4c-8.76-8.29-20.44-4.68-30.29-1.44a47.69,47.69,0,0,1-5.11,1.44,44.44,44.44,0,0,1-5.12,1.8l-10.94,2.52C677.72,1065.81,679.18,1064.37,676.26,1066.53Zm25.92,2.16c0-4.32-.73-4.32,2.19-5.4,3.29-1.8,5.84-1.08,9.86-1.08,2.92,0,0-.36,1.46.36l.73.36h.73c11,4.32,14.6,20.53,4.74,24.49l-8.39,2.52c-6.57,2.16-6.21,2.16-10.22-15.13C702.91,1072.65,702.18,1071.21,702.18,1068.69ZM225.83,889c0,8.64,10.94,7.2-12.05,25.21a16.09,16.09,0,0,0-2.56,2.16c-1.46,1.08-1.82,1.44-3.28,2.52a55.6,55.6,0,0,1-5.11,4.32c-3.29,2.52-15,13.33-17.16,13.33-6.94,0-5.11-2.52-9.12-.72.36,3.6,6.57,7.56,10.94,12.6l4,5.4c.73,1.09,1.46,1.81,2.19,2.89,1.46,1.8,1.1,1.44,3.29,2.52,2.92-4.32-1.1-4-1.1-9,0-6.48,16.06-18.36,19-19.8,9.49,8.28,5.48,12.24-1.46,28.81-1.82,5-4,12.6-2.19,17.65,1.46,3.59,8,9,12.78,9,2.19,0,0,0,1.83-.72-.37-5.4-8-2.52-1.47-19.09.73-1.8,1.1-2.88,1.83-5a27.56,27.56,0,0,0,1.82-5c1.47-2.89,2.56-6.85,4-9.73,1.82.36,15.33,7.2,23.73-5.76,4.38-7.2,2.55-16.57-1.83-22.69a15.25,15.25,0,0,0-1.82-2.52l-15.7-16.93c-1.46-1.8-2.56-3.6-4-5.4-1.1-1.44-3.29-5-4.75-5C226.55,887.9,225.83,888.26,225.83,889ZM235,940.12c-2.55,0-4,0-5.84-1.44-.73-.72-9.49-9-9.49-11.89,0-2.16,2.92-3.6,4.38-5,10.95-8.64,16.06-16.92,21.9-6.48,3.65,6.84,3.28,13-1.46,19.09-.73,1.44-.37.72-1.46,1.8l-1.09,1.08C240.43,938.32,237.51,940.12,235,940.12Zm-100.38-622c3.28.73,2.92.36,5.11-1.8,7.3-6.48,14.6,1.45,20.07,5,3.65,2.53,29.94,21.25,31.76,23.77,4,5-2.55,9.37,2.19,9.37,2.56,0,6.57-8.64,9.13-12.61,1.82-2.16,2.92-4,4.74-6.12,1.1-1.44,1.83-1.8,2.56-3.24,1.46-1.44,1.46-1.44.73-3.24-8,0-4.75,11.16-24.1-3.6l-5.1-4c-1.83-1.09,0-.37-1.83-1.09a10,10,0,0,1,4-7.92c3.28-2.52,5.11-1.8,9.49-1.08L216,313.83c4.75,0,8.39-1.08,11.31-4.68s3.29-6.84,3.29-13c-7.3-1.8,2.19,6.84-17.52,5.4-3.29-.36-21.17-2.16-23-3.24,0-2.88.73-2.88.73-4.68,0-16.57-19.34-22.69-31.39-11.53-3.65,3.6-5.84,7.2-8.76,11.53-6.21,9.36-6.93,11.52-14.6,20.52C134.93,315.63,134.93,315.27,134.57,318.15Zm32.12-30.25c5.48,0,7.67,0,12.41,3.24.73.72.37.72,1.1,1.08l1.46,1.8c4.38,5.41,2.19,10.09-1.83,15.13-1.82,2.16-1.82,4-5.84,6.48-4.38-2.16-13.51-9-17.89-12.6-6.2-4.68,0-10.44,4.38-13.33C162.31,289,164.13,287.9,166.69,287.9Zm897.23,212.49c5.47-4-5.84-11.53,15.33-16.21L1088,482l18.62-3.6c3.65-.72,7.3-1.44,4.75,2.16l-38,50.78c-1.82,2.16-4,3.6-4,7.2,3.66.72,5.48-.72,10.23-1.44l26.64-4.68c10.59-1.44,24.83-6.48,29.57-1.44,2.19,1.8,1.46,3.6,4.75,3.6,1.09-3.24.36-3.24-.37-6.48-4.38-14-1.46-19.45-6.21-19.81-1.45,2.88,0,5-.72,8.28-1.1,3.6-3.65,5-6.58,6.12l-13.5,3.61c-2.92.36-4.74.72-8,1.08-12.78,2.16-16.79,4.68-10.59-3.24.73-1.08,1.1-1.81,1.83-2.89l6.2-7.92a15.25,15.25,0,0,1,2.19-2.88L1122,488.14c.73-1.08,8.4-10.8,8.4-11.16,0-2.52-.73-3.6-1.1-5.76a23.91,23.91,0,0,1-1.46-5.41c-1.82-7.92-.73-9-4.38-9.36-1.09,2.52,0,4.32-1.09,7.2a7.08,7.08,0,0,1-2.92,4.68c-5.84,5.05-23.37,6.49-31.4,8.65-3.28.72-18.25,3.24-21.17,2.52l-4-1.44c-2.19-1.8-3.65-6.49-5.48-3.24-.36,1.08.37,3.24.73,4.32l2.19,8.28c.37,3.24,1.1,3.24,1.1,6.84C1061.37,498.23,1060.64,499.31,1063.92,500.39Zm-19.34,253.9v1.8c3.28,0,1.82,1.08,5.11-4,3.65-5.76,10.21-4,15.33-2.52l28.47,10.81c-1.1,3.24-5.48,4-11,6.12l-47.82,17.65c-2.19,1.44-2.19,1.44-2.92,4l-5.48,15.49c0,1.44.37,1.44,1.1,2.52,4.74-1.44,2.19-7.92,13.14-7.92,6.2,0,37.23,12.6,44.17,16.2,9.85,5,3.28,9,8,11.88,2.55-1.8,2.92-7.92,4.38-11.88,1.1-2.52,9.12-16.93,2.92-13.32-.73.35-1.46,1.79-2.19,2.88-3.65,5.4-7.67,5-13.87,3.24l-5.48-1.8h-.36l-15.7-5.77c-2.56-1.08-12.41-3.6-13.87-5.76,1.46-2.16,13.51-6.12,16.79-7.2l13.14-5.4a15.15,15.15,0,0,0,2.19-.72,7.69,7.69,0,0,1,2.19-.72c3.29-1.08,5.84-2.17,9.13-3.6a15.15,15.15,0,0,1,2.19-.72l20.08-7.93c1.82-.72,2.19-.72,2.55-3.24l-9.13-3.24c-8-3.24-45.62-17.65-49.27-21.25v-.36c-2.56-2.88-1.83-4.68-2.56-8.64h-2.55c-1.46,5-4,13.68-6.21,18C1046.76,749.6,1044.58,753.93,1044.58,754.29ZM144.06,735.92c0,5-5.48,8.64-9.13,10.44a40,40,0,0,1-6.93,2.88c-.37.36-.37.36-.73.36l-2.92,1.08c-6.57,2.89-27.75,11.17-33.95,11.17-2.55,0-5.47-4.32-7.3-4.32-4,0,.37,4.32,3.28,11.88,3.65,9.37,2.19,13,6.58,13.33,2.92-5.76-5.84-9.72,7.66-16.93,1.83-.72,3.65-1.44,5.84-2.16l2.92-1.44c3.29-1.44,24.46-10.09,27.38-10.09-.37,1.45,0,.73-.37,1.81l-23.72,47.18c-5.48,10.8-13.15,21.24-4,17.28L137.49,808c1.82-.72,2.92-1.44,4-1.8,6.57-2.16,19.35-7.57,24.09-7.57,3.65,0,4.75,4.32,8,5,1.09-1.81,1.46-1.45.73-3.61-1.46-3.24-4-6.12-5.84-12.24-1.83-5.76-1.83-10.09-4.75-9.36-1.1.36-1.1.36-1.1,1.8-.36,4.32,5.48,7.92-7.66,15.48-6.21,3.24-17.16,6.12-24.09,9a31.51,31.51,0,0,1-6.21,2.16c.37-3.6,1.46-4.69,2.92-7.93,3.29-6.48,26.28-49.7,26.28-51.14,0-.72-4-9-4.38-10.08L147.71,733c-.73-2.16-.73-3.6-3.65-4C143,731.6,144.06,733,144.06,735.92ZM70,486c3.65-2.16,3.65-10.44,10.58-10.44,15,0,31.4,6.12,36.87,6.12-.36,4-8.39,7.2-11.68,9.36L87.85,501.47c-1.83,1.08-2.56,1.8-4.38,2.88L65.58,514.79c-5.48,3.25-4,6.13-5.48,15.49-.73,4.68-1.82,5-.36,7.56,8.76-.72-5.84-16.57,38-6.12,5.11,1.44,15,2.88,20.44,4.68l1.1.36.73.36c2.19,1.08,4,1.8,5.11,4,2.19,3.6-.37,5.4,4,5.4,1.46-2.52,1.46-10.08,2.19-14,1.1-7.2,3.29-7.92,2.19-12.6-3.65.35-2.92,2.87-4.74,5.76-1.46,2.52-3.29,4.32-6.94,4.32-7.3,0-15.33-1.44-21.9-2.88L84.56,523.8c-1.83-.36-3.29-.36-5.11-.72,1.09-4,15-10.45,18.61-12.61L138.22,486c2.19-1.08,2.56-1.08,3.28-3.6-3.28-2.16-13.87-2.88-17.88-4l-18.25-4.32c-6.58-1.8-15.7-2.53-22.64-5.05a17.38,17.38,0,0,1-3.65-1.8c-4-3.24-1.09-5.4-4-7.56-4.38,1.08-2.19,8.64-3.65,13.69l-2.19,8.28C68.13,485.26,67.77,484.54,70,486Zm518.33,620.89c0,10.08,4.75,21.6,13.15,27.73,17.15,12.6,46.72,11.16,58.4-15.49,1.82-3.6,3.28-11.88,3.28-15.85,0-3.6-1.46-11.88-2.92-14.76-6.93-18.37-31.75-24.85-49.27-17.29-1.1.72-2.19,1.08-3.29,1.8l-3.28,1.8c-.37.36-.74.36-1.47.72l-.73.72v.36C593,1084.18,588.29,1094.26,588.29,1106.87Zm13.51-4.33c0-6.48-.36-7.2,1.46-14,5.84-19.09,25.55-17.29,33.58-10.81a15.53,15.53,0,0,0,2.92,2.16,34.64,34.64,0,0,1,4.38,5.77,31.43,31.43,0,0,1,2.92,6.12l.73,1.8c2.56,6.84,2.92,16.93,1.83,23.77-2.19,10.08-9.86,19.81-19.71,19.81-5.84,0-10.59-.36-15.7-4.68l-2.92-2.53c-1.09-1.44-1.82-2.88-2.92-4.32C604.72,1120.19,601.8,1111.55,601.8,1102.54Zm-9.86-1012c0,7.92-.36,13.32,4,21.24,11.68,21.61,44.9,24.49,60.59,6.49C673.71,99.19,669.69,65,642,58.13c-8.76-2.16-7.3-1.44-17.52-1.44-2.92,0-.73,0-2.92.72-3.65,1.08-4.74.72-9.85,3.24s-5.84,3.24-9.5,6.85C597.05,72.9,591.94,84.06,591.94,90.55Zm13.51,2.88c0-5.05,1.1-13.69,2.92-18.37,1.83-4.32,4.75-9,8.4-11.17,10.22-5.76,21.17-2.15,28.83,5.41,1.46,1.44,1.83,2.52,2.92,4,8,15.49,7.3,37.09-5.84,48.26-6.2,5-19,5.76-27-1.8l-.73-.72a27.75,27.75,0,0,1-5.84-8.65A53.91,53.91,0,0,1,605.45,93.43ZM216.7,226.32c0,16.93,6.93,28.09,20.07,37.09a33.3,33.3,0,0,0,9.13,4c8.39,2.17,15.7,1.09,23.36-3.6,7.3-4.68,12.41-12.24,16.06-20.16,8-15.49,6.94-14.05.37-20.17-9.49-9.73-4.38-10.81-4.38-14.05,0-2.52,0-.36-.73-1.8-2.92,0-5.84,4-8,6.48l-8.76,8.29c-3.65,2.88-5.11,3.24-5.84,6.48,3.65,2.16,1.82.36,8-2.16,1.82-1.08-1.83-.72,2.92-.72a13.49,13.49,0,0,1,4,1.8c2.56,2.16,8.4,8.64,8.4,11.52,0,4.69-5.11,12.61-9.49,15.49-8.4,6.12-22.27,1.08-30.3-5-1.82-1.44-2.92-2.88-4.75-4.32-4.74-3.61-12-14.77-12-21.25,0-6.84-.73-7.92,2.55-13.33,2.92-5.4,10.95-10.8,16.79-10.8,6.21,0,9.86-.36,15.7,2.16,1.46.72,5.84,5,5.84,1.08,0-2.16-5.11-6.48-6.57-7.92l-1.46-1.8c-1.82-2.16-4-5.05-6.57-5.77-3.65,2.88,2.19,1.8-6.94,5.77-1.09.35-2.55,1.08-3.64,1.44-4.75,2.16-11.69,6.12-15,10.08C220.35,210.83,216.7,218,216.7,226.32ZM295.91,1037c1.46,0,4.74-5.76,5.84-7.21,9.49-12.6,10.95-2.52,13.87-7.2,0,0,1.83,0-1.09-2.52l-3.29-2.16c-5.11-3.24-8.4-6.48-12.78-9.73l-2.92-2.52c-1.46-1.07-1.46-1.44-3.28-2.16-6.21,4.68,11.68,6.49-.73,19.81-5.84,5.76-8,6.13-16.79,2.88-9.13-3.6-13.14-13.32-10.59-22.69,1.83-7.92,2.92-13.32,9.86-21.24,10.58-13,27.74-19.45,39.42-5a21.62,21.62,0,0,1,4,6.85c6.2,16.56-5.48,23.77.73,23.77,1.82,0,4-4.69,6.57-7.93,11.31-14,4.74-7.92,1.46-11.88L320,978.3a22.64,22.64,0,0,0-4-4.69,34.42,34.42,0,0,0-8.77-7.2c-6.93-3.6-15.33-5.4-23-3.24l-7.67,2.16c-9.12,3.6-18.25,13-22.27,22-6.57,15.84-1.45,30.25,12.42,39.61,4,2.88,8,4.33,13.5,6.13C283.5,1034.12,292.26,1037,295.91,1037ZM489,68.22c5.47,2.52,11.68-1.44,13.14,13l4.74,46.1c0,5.76-4.74,3.24-6.2,8.28,4,1.8,11.68-1.8,17.88-2.16a66.35,66.35,0,0,0,8-.72c2.19,0,6.21.36,6.21-2.16,0-4.68-9.13,1.8-12-6.48-.37-1.44,0-2.16-.37-3.6a16.29,16.29,0,0,1-1.1-4c-.36-4-1.09-5.77-1.09-8.65L515.29,83c-1.83-11.88-2.92-16.92,8.76-16.92,3.29,0,5.84.35,8,1.8,9.49,5.4,12,23.41,0,27.36-5.84,2.17-4.38,1.45-11.68,1.45.37,2.88,1.46,4.32,6.94,4.32,4.74,0,9.12-.36,13.5-2.52.73-.36,1.1-.72,1.82-1.08,15.34-10.09,12.78-28.45-.72-34.58A30.85,30.85,0,0,0,528.07,61c-10.22.36-10.59,1.45-20.45,2.52-3.65.36-6.2,1.08-10.58,1.08-1.83,0-4,.37-5.11.37C489.37,65.69,489.37,65.69,489,68.22ZM876.3,1059c0,3.24-9.49,14.76,9.49.36l11-6.85c5.84-2.88,19-9,19-16.92,0-4-.37-9-3.29-12.61-4-5-2.92,6.12-3.28,7.92a26.62,26.62,0,0,1-4,7.21l-5.48,5.76c-8,6.48-9.85,9.73-18.25-3.24-2.92-4.32-6.57-9-7.67-14.41,3.29-2.16,3.29-2.52,9.13-6.12,4.38-2.52,5.84-2.52,10.59,1.44,4.38,3.6,6.2,1.8.72-5.4l-7.29-9.72c-1.47-2.89-.74-4-4.75-4,0,9,1.09,10.08-4.75,14-7.3,4.68-6.93,6.12-11.68.36-1.09-1.44-8.76-13.33-8.76-15.85,0-1.8,9.49-7.2,12-8.64,1.82-1.08.36-.36,2.55-1.08,3.29-1.44-.73-1.08,6.94-1.08,4,0,3.28,4.68,8,4.68,0-4.68-2.19-6.48-5.84-11.16-3.65-5.05-3.29-2.88-15.7,5.4l-25.91,16.21a13.43,13.43,0,0,1-2.92,1.8c-2.92,2.16-2.92,1.44-2.19,3.24,1.09,5,7.66-5.76,13.87,2.52,6.57,8.28,11.31,17.28,16.79,25.57C867.54,1043.12,876.3,1054.64,876.3,1059Zm-370.5,3.6c0,6.48,9.85,2.16,9.85,11.16l-1.82,18.73c-.37,2.88-.37,3.24-.73,6.48l-2.19,18c-.37,2.52-1.46,9.36-2.92,11.16-2.56,2.88-5.48,1.09-6.57,3.6-.37,2.17.36,1.8,1.46,2.17l19.71,1.8c2.55.36,2.92.72,5.84,1.08s3.28,1.08,5.11-1.44c-1.46-2.16-.73-1.08-2.92-2.16-9.85-3.25-8-6.49-6.21-23.05l1.83-14.41c1.83-10.8.36-25.57,8.39-25.57,9.5,0,17.16,6.12,17.16,13V1091c0,2.16-3.28,10.44-13.87,10.44-3.65,0-8.76-3.6-8.76,0,0,2.89,13.14,8.65,23.73,3.61,6.2-2.89,12.41-10.09,12.41-15.85,0-4.68.36-7.56-2.56-12.25-2.92-4.32-4-5-8.39-7.2a15.38,15.38,0,0,0-3.65-1.44c-12.42-4.32-24.46-2.52-36.14-5A18.56,18.56,0,0,0,505.8,1062.57ZM910.61,155c0,3.6,4.38,4.32,4.38,8.64,0,5-10.58,15.49-13.51,19.81s-15.69,20.89-20.07,24.85c-2.92,2.52-3.65,1.44-10.22,1.44.36,4.68,7.67,6.49,13.5,11.89l18.62,15.84c4.75,2.52,5.11,2.52,8.4,2.52,2.92,0,13.14-4.32,13.5-9.72-4,0-14.23,5-27-4.32-7.67-5.76-8.76-5.76.73-18.37a50.93,50.93,0,0,1,4-5.4c4-4,3.65-8.29,13.5,0,8,7.56,3.65,9,2.19,15.13l1.46,1.08c2.19-.73,2.92-2.16,4-4,2.19-3.24,10.58-13.68,11-16.2-2.92-.72-1.83-1.08-4.75.36-7.66,3.6-13.14-1.44-17.89-7.2,1.83-3.25,11.32-18,15-18.37,1.1-.36,17.16,10.08,17.16,16.56s-2.92,5-2.19,7.93c.37,2.88,2.92.36,4-1.08,1.46-1.44,6.57-8.29,6.57-10.09s-6.93-5.76-9.85-8.28c-3.65-2.88-7.3-5.4-11-8.28l-4.75-4.32a16.23,16.23,0,0,1-2.55-1.81c-3.29-2.16-11-9.72-13.51-10.44C911,153.93,910.61,153.93,910.61,155ZM100.26,384.78c0,2.88,2.19,4.68,5.47,8.65l16.06,19.08a34.65,34.65,0,0,0,3.65,3.6l6.21,7.57c2.55,2.88,4.38,5,6.93,7.56l4.38,5.4c.37,0,.37,0,.37.36,2.19,2.52,3.65,4,3.65,7.21.36,3.24,0,4,3.28,4.32,1.1-4,5.48-14.77,7.67-17.65.73-1.08,1.82-2.88,1.82-4,0-6.84-5.47,5-10.95,5-2.55,0-5.47-2.52-6.93-4-1.09-1.44-4.38-5.4-4.75-6.48-1.09-2.17.37-5.77,1.46-8.29,1.46-2.52,6.57-13.68,7.67-14.4,2.19-1.44,15.69-1.44,18.25,1.44,3.29,3.24-.37,5.76,3.29,8.28,2.19-1.44,2.19-3.6,3.28-6.48L177.64,388c1.46-2.88,6.57-8.28,2.19-8.28-2.56,0-2.92,3.24-5.84,4.68-6.93,2.88-13.87.72-20.08.72a93.65,93.65,0,0,1-10.58-.36c-5.84-.72-16.06,0-22.27,0a79.9,79.9,0,0,1-10.22-.72C106.46,383.7,103.54,384.42,100.26,384.78Zm16.79,11.53c8.39,0,14.23.71,22.63.71-1.1,4-6.21,15.49-9.13,17.65-3.28-2.88-5.47-6.12-8.76-9.36a53,53,0,0,1-3.65-4.68C116,398.47,113.76,396.31,117.05,396.31Zm12.77,455.22c-10.22,0-4.38-2.53-10.95-2.53,0,5,4.75,7.21,9.86,17.29,1.09,2.88,1.09,4.32,4.74,4.32,0-5.76-9.12-15.84,15-15.84,2.19,0,6.57,6.48,7.66,8.64,5.84,10.8,8,10.44,4.75,15.49C154.64,887.54,155,889,148.44,889c-1.83,0-6.21-5-6.21-.36,0,1.08,2.19,3.24,4.38,6.12l7.67,13c2.92,5.76,1.46,6.12,5.11,6.12,2.19-4.32-3.29-6.48,3.28-16.21l15.7-22.69c2.19-3.24,20.44-29.17,20.44-30.61,0-2.88-3.65-1.44-7.3-1.44L139,850.44C134.57,850.8,133.47,851.53,129.82,851.53Zm36.87,18.72-8-13c-1.46-2.16-1.83-2.52-1.1-5,4.38,0,11.68-1.45,16.07-2.16a39.14,39.14,0,0,1,6.57-.37c-.37,3.25-4.38,7.93-6.21,10.45C172.9,862.33,168.15,869.17,166.69,870.25ZM988.73,325c-4,0-.37,4,.72,5,1.83,2.52,6.21,8.64,7.31,11.52a10.6,10.6,0,0,0,1.46,3.6c.73,1.45.73,1.81,2.92,1.81,1.82-3.24-5.11-13,4.38-15.13,13.5-2.88,13.5-2.52,23.36,15.85,2.92,5.76.73,5.76-1.83,9.72-1.46,2.16-.73,1.8-2.55,3.24-2.19,2.52-2.92,5-6.94,5-3.28,0-4.38-2.52-6.2-2.52-2.19,0-1.83,1.44-1.1,2.88a131.69,131.69,0,0,1,9.13,13.33l1.82,3.24a18.94,18.94,0,0,1,1.83,4c2.19,6.49,4.38,2.52,4.38,2.52,0-4-3.65-7.2,4.74-17.64l26.29-36.38c16.06-21.61,7.66-14.41-3.29-14.41l-33.58,3.61c-1.83.36-3.29,1.08-5.11,1.08-2.92.36-4,0-6.21.72-2.92.72-13.87,1.8-16.79.72C991.28,326.44,990.55,325,988.73,325Zm47.45,21.61c-2.92-.72-2.92-2.53-4.38-5.05-6.57-12.6-9.49-12.24-1.46-13,5.47-.72,13.51-2.52,19.35-2.52-2.56,4-1.83,4.32-6.58,10.08-1.46,1.8-2.18,3.24-3.65,5-.73,1.08-1.09,1.44-1.82,2.53C1036.54,345.53,1036.54,344.45,1036.18,346.61ZM769,1060.77c0,10.44,5.11,22,11.68,28.81.37.72,1.1,1.08,1.46,1.44l.73.36a1.25,1.25,0,0,0,.37.72,22.83,22.83,0,0,0,5.84,3.6c16.79,9.37,37.59.72,46.36-15.49.73-1.79,6.93-13.68,2.55-15.12-2.19-.36-1.46.36-2.19,1.08-1.1,1.08-.73,2.88-1.46,4.68-2.56,7.92-12,17.65-19,17.65-7.67,0-7.3.72-13.87-1.8-12.41-4.32-22.63-21.61-22.63-31.34,0-9,1.09-17.28,10.58-21.6,6.57-3.61,14.24-3.24,21.54-.36,11.32,4.32,15.33,13,15.33,6.48,0-.36-8.76-14.05-9.86-18.37-5.84,0-1.45,3.6-5.84,4-2.92,0-6.93-.72-10.58-.36a43.69,43.69,0,0,0-15.7,6.49,35.55,35.55,0,0,0-10.58,11.52A38.33,38.33,0,0,0,769,1060.77Zm27.74-910.08c0,20.53,19.35,33.85,35,33.85A37.16,37.16,0,0,0,843.45,182c3.28-1.08,8-2.88,8.76-6.12-2.92-2.16-21.17,9.36-34-4-20.44-20.89,5.84-69.15,32.49-50.78,5.84,4,9.12,11.88,10.22,19.08,0,1.09,1.09,4.69,1.09,6.13,0,2.88-1.46,3.24,0,6.12,4,0,3.29-3.24,5.84-9.36,1.1-2.89,4.75-8.29,4.75-11.53,0-2.52-4,0-5.11,0-2.56-1.8-2.56-2.88-5.11-6.48-5.11-6.48-16.43-13-23.73-13-9.86,0-18.61.73-26.28,7.93C803.29,128.72,796.72,137.36,796.72,150.69Zm184.7,754.49c3.29,0,3.29.73,5.85,1.09l17.52,4.32c-.37,2.88-9.86,14.76-12.41,15.49-1.46-1.09-7.3-12.61-8.76-15.13S982.16,907.35,981.42,905.18ZM394.83,1052.12c0,2.88.73,4.32,2.19,7.21a23.93,23.93,0,0,0,3.29,5l6.2,7.2a.36.36,0,0,0,.37.36v.36c3.28,3.24-2.19-2.88.73.36,4.38,5,13.5,12.25,8.39,20.89-8,13-27.74,3.24-27.74-16.21,0-7.92.73-6.48-1.1-7.2-.72-.36.73-1.8-1.46.36-1.82,1.8-2.18,5.4-2.55,8.28,0,3.61-1.46,7.93-1.83,12.25,10.95,7.2,17.89,18.73,35.05,10.08a22.33,22.33,0,0,0,5.84-4.32l.73-.72v-.36l1.46-1.8c7.66-11.52,3.28-22.33-5.84-31.33-2.92-2.88-12.41-11.53-12.41-15.13,0-4.32-.37-2.52,1.09-5.76,6.21-10.81,24.09-1.44,25.19,11.89.36,3.6-.37,7.56.73,10.44,4.74-1.08,3.65-7.57,6.21-14,4.37-10.44,0-3.6-4.75-7.56-6.21-5-16.43-15.85-28.47-7.92a32.2,32.2,0,0,0-5.48,4.32C397.75,1042,394.83,1048.16,394.83,1052.12Zm591-833.72c0,3.24,0,2.88,1.46,4.68,3.65,7.2,0,10.44-6.58,15.85l-8,7.2h-.36l-2.19,1.8-1.46,1.44c-3.29,3.24-20.44,18.36-23.73,18.36-6.57,0,.37-1.08-7.3-1.08,0,3.6,3.29,5.05,6.94,8.29l.73,1.08.36.36,10.22,11.88a15.81,15.81,0,0,0,1.83,2.53c5.11,6.84,8.39,11.88,16.43,11.88a20.49,20.49,0,0,0,8.39-1.8c.73-.72,2.19-1.44,2.92-2.16,1.83-1.8,1.46-1.08.73-3.24-9.86,0-15.69.36-24.82-9-8-7.56-6.57-8.64,5.48-19.09l28.47-24.49c7.3-6.12,7.66-.36,10.58-.36,5.11,0-1.46-5.76-2.92-7.2-5.11-5.76-5.47-5.4-11-12.24C989.82,220.56,989.45,217,985.81,218.4ZM896,971.45c3.28,0,5.47-3.6,8.4-3.6,5.1,0,9.49,6.12,12,9l15.7,16.2a73.54,73.54,0,0,1,5.47,5c2.92,2.88,8.76,9,8.76,13,0,2.16-3.28,6.84.73,5.76,1.83-.36,3.65-3.6,4.75-5,2.92-3.24,6.93-6.84,9.85-9.72L977.41,988c6.57-9.72-.73-20.89-5.11-21.25-1.1,3.24,3.65,14.41-8.39,26.29-8.77,8.64-5.85,7.56-28.48-14.76l-7.3-7.93c-2.19-2.16-12.41-12.24-12.41-14,0-3.24,1.1-2.88,1.83-5,1.09-2.88-1.83-4-6.57,1.8a32.14,32.14,0,0,1-3.29,4,25.63,25.63,0,0,0-2.92,3.6C904.41,961,890.17,971.45,896,971.45Zm-539.87,32.77c0,3.61,7.66,4.33,5.84,11.17-.73,2.88-8,14.4-9.86,18a28.11,28.11,0,0,0-3.65,5.4l-6.93,11.52c-1.46,2.52-5.48,9.73-7.3,11.17-2.56,2.52-5.11.36-8,1.44-5.48,1.8,5.1,5,8.39,7.2,1.83,1.08,4,2.52,5.48,3.6a30,30,0,0,1,5.47,4c6.21,5,9.86,2.52,5.84-1.08l-1.82-1.08c-6.57-6.12.73-14,3.65-20.17l15-24.49c4-7.2,5.11-11.16,10.22-11.16,4.39,0,1.83,1.8,5.48-.72-.73-2.52-3.29-3.6-6.21-5-5.47-2.52-10.22-4.68-15-8.29C361.61,1005,356.14,999.9,356.14,1004.22Zm691-583.42c-8.76,0-4-3.61-10.22-3.61,0,3.61.36,2.52,2.55,7.21,1.1,1.8,1.47,3.6,2.56,5.4.73,2.16,4,17.65,7.67,16.93,2.19-.73.73-3.61.36-6.49-.36-5,2.56-7.2,6.57-9,4-2.16,46-19.09,47.09-19.09,1.82,0,2.92,1.8,4,3.24,1.83,2.17,1.46,1.8,4,1.08,0-4.32-6.57-14.76-9.13-22.33-1.82-5.76-.73-6.48-4.37-6.48-2.56,5.77,4.37,10.81-4.75,14.77-5.11,2.16-10.22,4.32-15.33,6.12C1073.41,410.71,1049,420.8,1047.13,420.8Zm-46,426.4c0,2.17,1.82,3.24,4.74-.72,6.21-7.92,10.59-2.52,21.9,4l23,13.33c17.16,9.36,8.76,9,11.68,15.49,2.56,0,2.19,0,3.29-1.81,1.46-3.24.73-3.6,5.11-11.16,1.46-2.52,8.39-11.88,8.39-13.32,0-7.21-4.74,4.32-11,4.32-5.84,0-22.27-11.17-28.84-14.77L1023,832.8c-1.83-.72-5.48-2.52-5.84-5,0-3.25,2.55-2.53,0-6.85-2.92.72-5.84,8.65-8,13a72.69,72.69,0,0,1-5.84,10.08C1002.23,845.4,1001.14,845.76,1001.14,847.2Zm-714-691.47,1.46,1.8,3.28-1.08c4.39-1.44,7.3-2.88,11.32,2.52a14.71,14.71,0,0,0,1.82,3.24l17.89,28.09c.73,1.44,1.1,1.81,1.83,3.25,4.38,7.2,6.56,9.36,3.65,14.4-1.1,1.8-1.83,2.16-1.1,3.24,1.46,1.8,1.46,1.44,3.29.36l2.92-2.88c7.3-5.76,20.8-10.44,20.8-13.68,0-7.93-7.3,11.88-19.71-9.37-3.29-5.76-23.36-35.29-23.36-39.25,0-3.6,3.29-3.24,3.29-6.13,0-5-10.22,4-13.15,6.13-4,2.88-6.57,4.68-10.95,6.48C288.25,153.57,287.88,153.21,287.15,155.73Zm731.14,758.1c1.1,2.52.73,1.08,4.38,2.16,3.29,1.08,5.11,1.8,6.21,4,1.46,3.6-.37,4.32.36,8.65,2.56-.36,2.2-.36,3.65-2.16l2.92-5.77.37-.36,8.4-9.72c4.38-4.32,4.38-3.24,4.38-7.2-5.11,0-2.56,1.44-8.4,2.88-2.92.72-11-1.44-14.24-2.52l-9.85-2.52c-1.46-.37-.73,0-2.56-.37-4.38-.72,2.92.72-1.09,0l-1.83-.72c-.73-.72-3.28-.72-4.38-1.08l-31-8.28c-2.56-.72-4-.36-6.57-.36,0,4,8.76,20.17,11.31,24.49L992.74,938c1.83,2.88,8.4,14.76,8.76,17.65.73,4-1.82,6.48.73,7.2,2.92.72,5.84-6.84,11.68-13.33,2.19-2.52,4-3.24,4.38-6.12-4.74-1.08-2.55,0-6.2,2.52-9.13,6.84-15.33-10.8-15-13,0-2.52,11.32-16.57,12.78-17.65C1013.55,912,1014.28,915.27,1018.29,913.83ZM374.75,144.57c4,0,5.11.72,9.13.72,5.84,0,13.87-.72,18.25,1.44l1.83,1.44h.36l1.83,2.52c0,.36,0,.36.36.36a18.77,18.77,0,0,1,0,9l-.73,2.53c-.36,0-4,9.36-17.52,6.12-7.67-.72-13.87-8.65-15.7-10.09-3.28-2.52-4,.36-2.55,3.24.73,1.44,2.55,3.25,3.65,4.68,8.76,12.25,6.57,10.09,16.79,8.65,11.68-1.8,18.25-4,22.27-16.93,2.92-8.28-1.1-17.64-6.94-23.05-7.66-6.48-19.71-5.4-29.93-5.4-13.14,0-13.87-7.92-11.32-13.32a9.24,9.24,0,0,1,4.38-4.69c7.31-4.32,18.25-1.44,25.19,5.77,5.11,5.4,5.84,1.79,1.46-5-3.65-5.4-3.65-6.84-6.2-11.52-4.38,1.08-2.56,3.24-8,3.6-4.74.36-6.2,0-10.22,1.44C351.76,111.07,351,141.69,374.75,144.57Zm58,398.68c-.36-5.77-4.74-20.54-5.84-27.38-5.84-28.81-10.22-57.62-10.58-87.51-.37-45,5.11-76,16.79-113.81,14.6-45.37,43.44-90,77.75-117.76,10.22-8.29,25.92-19.81,39.42-25.21,32.49-13,81-10.81,105.49,8.28,10.22,8.28,22.64,24.85,18.26,46.46C670.43,244,659.47,257.65,650.35,267c-8.4,8.65-25.55,20.89-40.88,24.49-39.79,8.65-58-24.85-35.78-40,12.78-8.65,13.51,4.32,18.25,10.08,11.68,13.33,42.71,8.29,49.28,1.8-5.11,0-12,1.08-16.79-1.8-1.46-1.08-.73-.36-1.82-1.8,12.41.36,21.53.36,29.93-5.4,19.71-13.69,23.72-47.9-5.48-68.43-31.39-22-73.73-21.25-108-2.16-58,32.42-92.72,109.85-102.94,176.11-13.51,88.24,2.19,168.91,26.64,243.82,18.62,56.54,45.63,118.48,75.56,169.62,2.56,4,4.38,6.85,6.58,10.81l6.93,10.44c1.83-2.16,5.84-22.69,6.21-25.21,2.19-8.28,4.38-16.56,6.93-24.49,21.91-67.7,53.3-158.82,112.79-198.44,6.21-4,12-8.64,21.91-9.36,28.47-1.8,40.51,38.54,12,48.62-9.12,3.24-19-.72-29.2,1.08C624.8,596.55,587.2,707.11,573,757.17c-2.55,9.36-11.68,42.49-11.31,50.78,0,4,10.22,15.12,12.77,18.73l28.47,33.49c2.56,2.88,12.41,14.4,15.34,15.48,3.28-1.08,9.85-7.2,12.77-9.36,17.89-14.76,38.69-37.81,52.2-56.9,2.56-4,16.06-22,17.16-26.29-15,.36-54.76,6.12-67.17,1.8l.37-4.68.73-1.44c5.47,0,11.31,2.16,16.79,2.52,16.42.72,32.12-.72,46-9,16.06-9.36,25.55-22.32,34.32-39.61,16.06-32.41,31.39-69.87,44.16-103.36,13.14-36,27.38-70.59,41.25-106.61,2.19-5.4,39.79-100.11,41.25-105.88-3.65-.36-20.81,8.65-24.09,10.45a173.41,173.41,0,0,0-38,30.61c-2.55,2.88-5.47,5.76-8,9-1.46,1.43-2.19,2.88-4,4.67-1.46,1.81-2.19,3.61-4.38,4.33.73-2.88,4-6.49,6.2-9,15.33-18.73,29.93-36.38,50.38-51.51,5.11-4,11-8.64,17.15-12.24,2.56-1.44,7.67-4,9.13-5.76,2.55-3.6,11.31-25.21,13.5-30.26,1.83-4.32,8-16.56,8.76-19.8-2.55.36-12.41,5.4-15.69,6.84-60.23,26.29-126.66,49.7-192.37,57.62-13.87,1.8-27.74,2.52-41.61,4.32-5.84.36-40.15,1.45-43.81-.36-.73-.72,3.29-5,3.66-5.76,7.29-.72,19,.36,27,0,39-.72,82.86-5.76,120.09-15.13,49.28-12.6,93.08-27.73,139.07-49.33,24.46-11.17,17.53-6.85,39.43-14,6.57-2.16,12.41-5.4,18.25-7.56,0,2.52-9.49,25.21-11.32,29.53-2.19,5-4,10.08-5.84,14.76-.73,1.8-6.21,13-4.38,14.41.73.72,35.77.36,57.31,18.37,7.3,6.12,12.78,10.8,18.62,19.45,29.2,42.49,19,109.84,0,151.26-16.43,36-39.43,63-69.72,81-25.55,15.12-58.77,25.93-90.16,18.72-13.14-2.88-16.8-6.12-27-9.72-3.28,3.6-13.14,27-16.06,33.85-4.74,11.53-9.85,22.69-14.6,34.58-5.47,14.4-13.5,27.37-5.11,37.09,5.11,6.12,16.43,10.08,25.55,11.53,2.92.36,8.76.36,10.59,1.44-3.65,6.12-23.36,3.6-31.39,2.88-11.32-1.08-23.36-1.44-34.68-2.16H722.26c-8.4,0-11.68-.72-14.24,3.24-4.74,7.56-9.85,14.05-15,21.61C685.39,816.23,677,826.31,669,836.4a373.6,373.6,0,0,1-35.41,36.37l-9.49,9c3.65,5.76,22.63,20.53,28.83,25.57,31.39,25.57,67.17,45,110.61,51.86,15.33,2.52,34.67,4,49.27,0,22.27-5.77,38.33-16.57,43.44-37.82,2.92-13-2.92-13.32-5.84-20.53-3.28-6.84,4.38-14.4,10.59-15.12,8-1.08,15.33,4,18.61,7.92,10.59,12.25,5.11,28.81-2.92,40-7.3,9.72-17.88,16.56-31.39,22.33-27,11.52-61,14-94.54,8.64-50.74-7.92-93.08-27.37-133.23-56.18-4.75-3.25-10.59-9-15-11.53-8.4,2.88-27.38,20.17-81.76,34.94-77.39,21.24-169,8.28-234.35-35.66-4-2.88-29.57-21.61-31.39-27,4,.72,5.84,3.6,8.76,6.12a300.3,300.3,0,0,0,24.82,17.29c28.1,18,68.26,33.5,101.84,39.26,57.67,9.72,116.08,0,167.55-21.61,6.57-2.88,13.5-5.77,19.34-9,4.38-2.17,13.51-6.13,17.16-9.37l.73-.72c-1.46-2.16-5.84-5.4-8-7.2-17.52-15.49-34-35.66-47.82-54.74-4-5.77-8-11.53-12-17.65-3.66-5.76-8-11.89-11.32-18l-21.54-37.09c-20.44-37.1-48.55-99-64.24-141.54l-5.48-16.2c-.73-2.53-.73-4-2.92-4.69-2.19,7.21-4.38,14.41-6.57,22-6.57,20.53-14.6,41.42-22.63,60.87-12.41,30.61-37.6,83.91-56.58,110.92-21.53,30.25-49.28,53.66-79.94,73.83-4,2.52-5.11,4.68-8.76,1.08.73-1.8,3.29-2.88,5.11-3.6,12-7.2,24.46-15.13,35-24.85-1.09-.36-5.11,2.16-7.3,2.88a71.69,71.69,0,0,1-30.29,3.6c-24.83-2.16-45.63-22-43.08-48.26,1.83-17.65,21.54-37.81,34.31-20.89,4.75,6.49,4.38,10.45-.36,16.21-2.56,3.6-8,8.64-8.76,14-2.55,19.09,17.52,32.42,36.87,31.34,11.68-.72,24.09-9,30.66-14.77,14.23-11.88,29.57-32,40.88-50.78,11.68-19.45,21.17-38.53,31-60.86,12.41-28.09,33.22-87.16,40.52-119.57,1.09-5,3.65-13.69,4-18.73-6.93-2.52-27-3.6-35.77-4.68-28.84-4-82.86-4.32-102.21,13.69-6.57,6.12-12,19.09-5.47,29.89,5.47,8.28,18.25,11.16,27.74,4,4.38-3.6,5.11-8.28,8.4-12.25,12.77-14.4,29.2,12.25,15,25.58-7.3,6.84-21.17,6.84-32.12,3.24-10.59-3.24-17.89-9.37-21.9-18-4.75-10.08-3.29-25.21.73-34.21,13.5-29.54,52.92-34.94,84.68-35.3a351.94,351.94,0,0,1,39.06.72C405.78,542.16,420.75,543.25,432.79,543.25Z" transform="translate(-17.76 -17.8)"/></svg>